<svg width="48" height="48" viewBox="0 0 48 48" fill="none" xmlns="http://www.w3.org/2000/svg">
<rect width="48" height="48" rx="8" fill="#FBFCFC"/>
<path d="M31.2806 30.2194C31.3503 30.289 31.4056 30.3718 31.4433 30.4628C31.481 30.5539 31.5004 30.6514 31.5004 30.75C31.5004 30.8485 31.481 30.9461 31.4433 31.0372C31.4056 31.1282 31.3503 31.2109 31.2806 31.2806C31.2109 31.3503 31.1282 31.4056 31.0372 31.4433C30.9461 31.481 30.8485 31.5004 30.75 31.5004C30.6514 31.5004 30.5539 31.481 30.4628 31.4433C30.3718 31.4056 30.289 31.3503 30.2194 31.2806L24 25.0603L17.7806 31.2806C17.6399 31.4213 17.449 31.5004 17.25 31.5004C17.051 31.5004 16.8601 31.4213 16.7194 31.2806C16.5786 31.1399 16.4996 30.949 16.4996 30.75C16.4996 30.551 16.5786 30.3601 16.7194 30.2194L22.9397 24L16.7194 17.7806C16.5786 17.6399 16.4996 17.449 16.4996 17.25C16.4996 17.051 16.5786 16.8601 16.7194 16.7194C16.8601 16.5786 17.051 16.4996 17.25 16.4996C17.449 16.4996 17.6399 16.5786 17.7806 16.7194L24 22.9397L30.2194 16.7194C30.3601 16.5786 30.551 16.4996 30.75 16.4996C30.949 16.4996 31.1399 16.5786 31.2806 16.7194C31.4213 16.8601 31.5004 17.051 31.5004 17.25C31.5004 17.449 31.4213 17.6399 31.2806 17.7806L25.0603 24L31.2806 30.2194Z" fill="#171023"/>
</svg>
